<svg width="2000" height="2000" viewBox="0 0 2000 2000" version="1.1" xmlns="http://www.w3.org/2000/svg" xmlns:xlink="http://www.w3.org/1999/xlink" xmlns:figma="http://www.figma.com/figma/ns">
<title>strona g&#197;&#130;&#195;&#179;wna</title>
<desc>Created using Figma</desc>
<g id="Canvas" transform="translate(10090 6567)" figma:type="canvas">
<mask id="mask0_alpha" mask-type="alpha">
<path d="M -10090 -6567L -8090 -6567L -8090 -4567L -10090 -4567L -10090 -6567Z" fill="#FFFFFF"/>
</mask>
<g id="iPad Pro" mask="url(#mask0_alpha)" figma:type="frame">
<path d="M -10090 -6567L -8090 -6567L -8090 -4567L -10090 -4567L -10090 -6567Z" fill="#FFFFFF"/>
<g id="Rectangle 9" figma:type="rounded-rectangle">
<use xlink:href="#path0_fill" transform="translate(-10090 -6567)" fill="#192237"/>
</g>
<g id="Union" figma:type="vector-operation">
<use xlink:href="#path1_fill" transform="translate(-9278 -6078)" fill="#E72159"/>
</g>
<g id="Subtract" figma:type="vector-operation">
<use xlink:href="#path2_fill" transform="translate(-9268 -4887)" fill="#D49936"/>
</g>
<g id="Ellipse 7" figma:type="ellipse">
<use xlink:href="#path3_fill" transform="translate(-9298 -5160)" fill="#D49936"/>
</g>
<g id="Subtract" figma:type="vector-operation">
<use xlink:href="#path4_fill" transform="translate(-9266 -5205)" fill="#D49936"/>
</g>
<g id="Line 3" figma:type="line">
<use xlink:href="#path5_stroke" transform="matrix(0.410283 0.911958 -0.911958 0.410283 -9540.21 -5713.14)" fill="#D49936"/>
</g>
<g id="Line 3" figma:type="line">
<use xlink:href="#path6_stroke" transform="matrix(-0.372745 0.927934 -0.927934 -0.372745 -8818.5 -5737.8)" fill="#D49936"/>
</g>
<g id="Union" figma:type="vector-operation">
<use xlink:href="#path7_fill" transform="translate(-9583 -6361)" fill="#D49936"/>
</g>
<g id="Union" figma:type="vector-operation">
<use xlink:href="#path8_fill" transform="translate(-9443.4 -6198.5)" fill="#FEB942"/>
</g>
</g>
</g>
<defs>
<path id="path0_fill" d="M 0 0L 2000 0L 2000 2000L 0 2000L 0 0Z"/>
<path id="path1_fill" fill-rule="evenodd" d="M 168.038 65C 178.202 58.8755 185 47.7314 185 35C 185 15.6699 169.33 0 150 0C 130.67 0 115 15.6699 115 35C 115 47.7314 121.798 58.8755 131.962 65L 0 65L 0 197.398C 6.29297 188.106 16.9336 182 29 182C 48.3301 182 64 197.67 64 217C 64 236.33 48.3301 252 29 252C 16.9336 252 6.29297 245.894 0 236.602L 0 365L 130.397 365C 121.106 358.708 115 348.067 115 336C 115 316.67 130.67 301 150 301C 169.33 301 185 316.67 185 336C 185 348.067 178.894 358.708 169.603 365L 300 365L 300 233.038C 306.124 243.202 317.269 250 330 250C 349.33 250 365 234.33 365 215C 365 195.67 349.33 180 330 180C 317.269 180 306.124 186.798 300 196.962L 300 65L 168.038 65Z"/>
<path id="path2_fill" fill-rule="evenodd" d="M 0.991211 0C 0.336914 3.77295 0 7.61035 0 11.5C 0 66.4521 67.1572 111 150 111C 232.843 111 300 66.4521 300 11.5C 300 7.61035 299.663 3.77295 299.009 0L 233.703 0C 239.681 6.36768 240 10.7715 240 11.5C 240 12.5322 239.358 20.9399 222.899 31.8574C 206.889 42.478 181.288 51 150 51C 118.712 51 93.1113 42.478 77.1006 31.8574C 60.6416 20.9399 60 12.5322 60 11.5C 60 10.7715 60.3193 6.36768 66.2969 0L 0.991211 0Z"/>
<path id="path3_fill" d="M 360 44C 360 68.3005 279.411 88 180 88C 80.5887 88 0 68.3005 0 44C 0 19.6995 80.5887 0 180 0C 279.411 0 360 19.6995 360 44Z"/>
<path id="path4_fill" fill-rule="evenodd" d="M 298.52 89C 299.495 85.4062 300 81.7339 300 78C 300 34.9219 232.843 0 150 0C 67.1572 0 0 34.9219 0 78C 0 81.7339 0.504883 85.4062 1.48047 89L 298.52 89Z"/>
<path id="path5_stroke" d="M 0 0L 684.166 0L 684.166 -100L 0 -100L 0 0Z"/>
<path id="path6_stroke" d="M 0 0L 665.36 0L 665.36 -100L 0 -100L 0 0Z"/>
<path id="path7_fill" fill-rule="evenodd" d="M 806 455C 806 512.046 792.642 565.894 768.921 613.59L 681.922 847.711C 815.986 768.699 906 622.408 906 455C 906 203.71 703.185 0 453 0C 202.815 0 0 203.71 0 455C 0 628.602 96.7969 779.497 239.138 856.204L 189.598 731.179L 144.844 628.322C 116.293 577.101 100 518.001 100 455C 100 258.523 258.458 100 453 100C 647.542 100 806 258.523 806 455ZM 319 1499C 331.916 1499 343.938 1495.32 353.995 1489L 609 1489L 619 1489C 624.454 1489 629.501 1487.25 633.61 1484.29C 656.741 1475.02 673 1453.09 673 1427.5C 673 1405.95 661.463 1386.98 644 1376L 644 1369L 643.997 1368.62C 662.021 1357.74 674 1338.46 674 1316.5C 674 1287.07 652.487 1262.47 623.749 1256.42C 620.493 1254.87 616.848 1254 613 1254L 319 1254L 313 1254C 309.757 1254 306.658 1254.62 303.814 1255.74C 275.798 1262.29 255 1286.56 255 1315.5C 255 1338.66 268.32 1358.83 288 1369.32L 288 1374C 288 1377.12 288.57 1380.1 289.612 1382.85C 269.051 1393.08 255 1413.71 255 1437.5C 255 1471.47 283.653 1499 319 1499ZM 368.911 1399L 371 1399L 379 1399L 547 1399L 552.272 1399L 552.063 1399.39C 553.336 1399.13 554.652 1399 556 1399C 557.194 1399 558.363 1399.1 559.5 1399.31C 560.637 1399.1 561.806 1399 563 1399C 574.046 1399 583 1407.95 583 1419C 583 1430.05 574.046 1439 563 1439C 561.806 1439 560.637 1438.9 559.5 1438.69C 558.363 1438.9 557.194 1439 556 1439C 554.453 1439 552.946 1438.82 551.5 1438.49C 550.054 1438.82 548.548 1439 547 1439C 546.703 1439 546.407 1438.99 546.113 1438.98L 546.115 1438.99L 546.117 1439L 382.981 1439L 382.99 1438.6C 381.701 1438.86 380.366 1439 379 1439C 377.63 1439 376.292 1438.86 375 1438.6C 373.708 1438.86 372.37 1439 371 1439C 359.954 1439 351 1430.05 351 1419C 351 1408.63 358.891 1400.11 368.994 1399.1L 368.911 1399ZM 547.323 1304L 386 1304L 381.883 1304L 381.962 1304.41C 381.639 1304.47 381.317 1304.55 381 1304.63C 379.402 1304.22 377.727 1304 376 1304C 375.153 1304 374.319 1304.05 373.5 1304.15C 372.681 1304.05 371.847 1304 371 1304C 359.954 1304 351 1312.95 351 1324C 351 1335.05 359.954 1344 371 1344C 371.847 1344 372.681 1343.95 373.5 1343.85C 374.231 1343.94 374.974 1343.99 375.728 1344L 376 1344L 386 1344L 548 1344L 552.739 1344L 552.67 1343.87C 553.435 1343.95 554.212 1344 555 1344C 556.37 1344 557.708 1343.86 559 1343.6C 560.292 1343.86 561.63 1344 563 1344C 574.046 1344 583 1335.05 583 1324C 583 1312.95 574.046 1304 563 1304C 561.63 1304 560.292 1304.14 559 1304.4C 557.708 1304.14 556.37 1304 555 1304C 553.806 1304 552.637 1304.1 551.5 1304.31C 550.363 1304.1 549.194 1304 548 1304C 547.772 1304 547.547 1304 547.321 1304.01L 547.323 1304ZM 465.999 1194L 406.999 1201L 305 644.5L 366 644.5L 465.999 1194ZM 605.558 645.538L 546 645.538L 467.058 1198.54L 527.058 1206.54L 605.558 645.538Z"/>
<path id="path8_fill" fill-rule="evenodd" d="M 196.135 59.8869C 196.283 59.8717 196.43 59.8556 196.578 59.8385C 214.408 57.7751 227.318 42.7599 225.414 26.3014C 223.508 9.84244 207.51 -1.827 189.68 0.236479C 187.86 0.446928 186.09 0.79312 184.383 1.26138C 127.267 11.3791 78.5308 54.7409 46.4361 104.486C 16.1041 151.502 -3.09125 209.825 0.410707 263.847C 0.335511 265.438 0.368715 267.056 0.516176 268.693C 0.664613 270.344 0.925355 271.957 1.28864 273.522C 1.40485 274.511 1.52887 275.499 1.66071 276.485L 2.09625 276.426C 6.59332 290.238 19.2974 299.632 33.3121 298.369C 48.1558 297.031 59.4146 284.196 60.355 268.619L 61.1295 268.515C 55.8257 228.946 69.5679 179.307 96.8541 137.014C 124.342 94.4074 161.252 65.7497 196.172 60.1173L 196.135 59.8869Z"/>
</defs>
</svg>
